<?xml version="1.0" encoding="UTF-8" standalone="no" ?>
<!DOCTYPE svg PUBLIC "-//W3C//DTD SVG 1.1//EN" "http://www.w3.org/Graphics/SVG/1.1/DTD/svg11.dtd">
<svg xmlns="http://www.w3.org/2000/svg" xmlns:xlink="http://www.w3.org/1999/xlink" version="1.1" width="1080" height="1080" viewBox="0 0 1080 1080" xml:space="preserve">
<desc>Created with Fabric.js 5.2.4</desc>
<defs>
</defs>
<g transform="matrix(1 0 0 1 540 540)" id="e86fa2fb-7957-416f-8cba-3cd20b968368"  >
<rect style="stroke: none; stroke-width: 1; stroke-dasharray: none; stroke-linecap: butt; stroke-dashoffset: 0; stroke-linejoin: miter; stroke-miterlimit: 4; fill: rgb(255,255,255); fill-rule: nonzero; opacity: 1; visibility: hidden;" vector-effect="non-scaling-stroke"  x="-540" y="-540" rx="0" ry="0" width="1080" height="1080" />
</g>
<g transform="matrix(1 0 0 1 540 540)" id="9697488a-b867-4890-923c-431c67468a22"  >
</g>
<g transform="matrix(8.5 0 0 8.5 556.66 540)" id="8f2369b7-5d69-4528-a8a1-158cb6d87ba2"  >
<path style="stroke: rgb(0,0,0); stroke-width: 0; stroke-dasharray: none; stroke-linecap: butt; stroke-dashoffset: 0; stroke-linejoin: miter; stroke-miterlimit: 4; fill: rgb(214,142,67); fill-rule: nonzero; opacity: 1;" vector-effect="non-scaling-stroke"  transform=" translate(-43.43, 59)" d="M 3.546875 0 L 3.546875 -1.421875 L 8.96875 -1.421875 C 9.75 -1.421875 10.59375 -1.597656 11.5 -1.953125 C 12.40625 -2.304688 13.210938 -3.03125 13.921875 -4.125 C 14.628906 -5.226562 14.984375 -6.84375 14.984375 -8.96875 L 14.984375 -109.03125 C 14.984375 -111.238281 14.628906 -112.867188 13.921875 -113.921875 C 13.210938 -114.984375 12.40625 -115.691406 11.5 -116.046875 C 10.59375 -116.398438 9.75 -116.578125 8.96875 -116.578125 L 3.546875 -116.578125 L 3.546875 -118 L 44.25 -118 C 47.789062 -118 51.410156 -117.445312 55.109375 -116.34375 C 58.804688 -115.25 62.1875 -113.519531 65.25 -111.15625 C 68.320312 -108.789062 70.800781 -105.738281 72.6875 -102 C 74.570312 -98.269531 75.515625 -93.769531 75.515625 -88.5 C 75.515625 -83.625 74.492188 -79.296875 72.453125 -75.515625 C 70.410156 -71.742188 67.734375 -68.578125 64.421875 -66.015625 C 61.117188 -63.460938 57.539062 -61.597656 53.6875 -60.421875 C 59.351562 -60.023438 64.40625 -58.429688 68.84375 -55.640625 C 73.289062 -52.847656 76.8125 -49.207031 79.40625 -44.71875 C 82.007812 -40.238281 83.3125 -35.207031 83.3125 -29.625 C 83.3125 -23.71875 81.972656 -18.539062 79.296875 -14.09375 C 76.617188 -9.65625 73.132812 -6.195312 68.84375 -3.71875 C 64.5625 -1.238281 59.941406 0 54.984375 0 Z M 23.59375 -59 L 23.59375 -1.421875 L 43.546875 -1.421875 C 49.835938 -1.421875 55.023438 -2.34375 59.109375 -4.1875 C 63.203125 -6.039062 66.425781 -8.421875 68.78125 -11.328125 C 71.144531 -14.234375 72.816406 -17.300781 73.796875 -20.53125 C 74.785156 -23.757812 75.28125 -26.75 75.28125 -29.5 C 75.28125 -32.25 74.707031 -35.316406 73.5625 -38.703125 C 72.425781 -42.085938 70.539062 -45.3125 67.90625 -48.375 C 65.269531 -51.445312 61.828125 -53.984375 57.578125 -55.984375 C 53.335938 -57.992188 48.066406 -59 41.765625 -59 Z M 38.34375 -116.578125 L 23.59375 -116.578125 L 23.59375 -60.421875 L 38.109375 -60.421875 C 44.722656 -60.421875 50.132812 -61.675781 54.34375 -64.1875 C 58.550781 -66.707031 61.65625 -70.09375 63.65625 -74.34375 C 65.664062 -78.59375 66.671875 -83.3125 66.671875 -88.5 C 66.671875 -91.800781 66.117188 -95.101562 65.015625 -98.40625 C 63.910156 -101.71875 62.195312 -104.75 59.875 -107.5 C 57.5625 -110.25 54.613281 -112.445312 51.03125 -114.09375 C 47.457031 -115.75 43.226562 -116.578125 38.34375 -116.578125 Z M 38.34375 -116.578125" stroke-linecap="round" />
</g>
</svg>