<?xml version="1.0" encoding="UTF-8" standalone="no" ?>
<!DOCTYPE svg PUBLIC "-//W3C//DTD SVG 1.1//EN" "http://www.w3.org/Graphics/SVG/1.1/DTD/svg11.dtd">
<svg xmlns="http://www.w3.org/2000/svg" xmlns:xlink="http://www.w3.org/1999/xlink" version="1.1" width="1080" height="1080" viewBox="0 0 1080 1080" xml:space="preserve">
<desc>Created with Fabric.js 5.2.4</desc>
<defs>
</defs>
<g transform="matrix(1 0 0 1 540 540)" id="06a4ff79-30ac-4ce1-871e-7b77448fb836"  >
<rect style="stroke: none; stroke-width: 1; stroke-dasharray: none; stroke-linecap: butt; stroke-dashoffset: 0; stroke-linejoin: miter; stroke-miterlimit: 4; fill: rgb(255,255,255); fill-rule: nonzero; opacity: 1; visibility: hidden;" vector-effect="non-scaling-stroke"  x="-540" y="-540" rx="0" ry="0" width="1080" height="1080" />
</g>
<g transform="matrix(1 0 0 1 540 540)" id="93aae889-4a29-49c3-8491-09523c74d39a"  >
</g>
<g transform="matrix(8.35 1.68 -1.68 8.35 206.42 540)"  >
<path style="stroke: rgb(0,0,0); stroke-width: 0; stroke-dasharray: none; stroke-linecap: butt; stroke-dashoffset: 0; stroke-linejoin: miter; stroke-miterlimit: 4; fill: rgb(214,142,67); fill-rule: nonzero; opacity: 1;" vector-effect="non-scaling-stroke"  transform=" translate(-100.8, -70.84)" d="M 30.1875 18.148438 L 30.1875 17.089844 L 64.753906 17.089844 L 64.753906 18.148438 C 61.027344 18.148438 58.195312 18.640625 56.261719 19.621094 C 54.335938 20.605469 53.09375 21.976562 52.53125 23.738281 C 51.96875 25.492188 51.894531 27.527344 52.316406 29.84375 C 52.734375 32.160156 53.441406 34.65625 54.433594 37.320312 L 82.882812 112.363281 C 85.628906 104.636719 88.453125 96.890625 91.363281 89.132812 C 94.277344 81.363281 97.140625 73.585938 99.953125 65.785156 L 88.472656 35.535156 C 86.148438 29.699219 83.964844 25.347656 81.925781 22.464844 C 79.894531 19.589844 77.265625 18.148438 74.035156 18.148438 L 74.035156 17.089844 L 127.574219 17.089844 L 127.574219 18.148438 C 124.34375 18.148438 121.6875 19.589844 119.613281 22.464844 C 117.542969 25.347656 115.382812 29.699219 113.136719 35.535156 L 105.328125 56.09375 L 126.730469 112.363281 C 131.085938 99.925781 135.617188 87.496094 140.328125 75.0625 C 145.035156 62.625 149.425781 50.15625 153.496094 37.648438 C 154.199219 35.535156 154.65625 33.339844 154.867188 31.058594 C 155.074219 28.769531 154.828125 26.667969 154.125 24.738281 C 153.425781 22.804688 152.09375 21.222656 150.121094 19.992188 C 148.15625 18.765625 145.308594 18.148438 141.585938 18.148438 L 141.585938 17.089844 L 171.410156 17.089844 L 171.410156 18.148438 C 168.175781 18.148438 165.523438 19.589844 163.445312 22.464844 C 161.375 25.347656 159.21875 29.699219 156.984375 35.535156 L 123.242188 124.585938 L 122.199219 124.585938 L 100.796875 68.101562 L 79.410156 124.585938 L 78.351562 124.585938 L 44.625 35.535156 C 42.308594 29.699219 40.128906 25.347656 38.09375 22.464844 C 36.050781 19.589844 33.417969 18.148438 30.1875 18.148438 Z M 102.914062 18.25 C 100.375 18.25 98.527344 18.8125 97.367188 19.9375 C 96.210938 21.0625 95.582031 22.558594 95.480469 24.425781 C 95.371094 26.285156 95.601562 28.339844 96.164062 30.585938 C 96.726562 32.839844 97.425781 35.082031 98.265625 37.320312 L 104.386719 53.347656 C 105.300781 50.746094 106.175781 48.128906 107.015625 45.5 C 107.863281 42.859375 108.738281 40.246094 109.648438 37.648438 C 110.285156 35.820312 110.847656 33.800781 111.335938 31.585938 C 111.828125 29.367188 111.984375 27.242188 111.804688 25.210938 C 111.632812 23.175781 110.878906 21.503906 109.546875 20.207031 C 108.210938 18.902344 106 18.25 102.914062 18.25 Z M 102.914062 18.25" stroke-linecap="round" />
</g>
</svg>